{
  "accessors": [
    {
      "bufferView": 2,
      "componentType": 5126,
      "count": 2773,
      "max": [
        7.153441429138184,
        7.153441429138184,
        18.578109741210938
      ],
      "min": [
        -7.153441429138184,
        -7.153441429138184,
        0.0
      ],
      "type": "VEC3"
    },
    {
      "bufferView": 2,
      "byteOffset": 33276,
      "componentType": 5126,
      "count": 2773,
      "max": [
        1.0,
        1.0,
        1.0
      ],
      "min": [
        -1.0,
        -1.0,
        -0.9978895783424377
      ],
      "type": "VEC3"
    },
    {
      "bufferView": 3,
      "componentType": 5126,
      "count": 2773,
      "max": [
        1.0,
        1.0,
        0.02467651478946209,
        1.0
      ],
      "min": [
        -1.0,
        -1.0,
        -0.024676533415913582,
        1.0
      ],
      "type": "VEC4"
    },
    {
      "bufferView": 1,
      "componentType": 5126,
      "count": 2773,
      "max": [
        0.9979999661445618,
        0.9836029410362244
      ],
      "min": [
        0.0020000000949949026,
        0.0020000000949949026
      ],
      "type": "VEC2"
    },
    {
      "bufferView": 0,
      "componentType": 5125,
      "count": 6186,
      "type": "SCALAR"
    },
    {
      "bufferView": 2,
      "byteOffset": 66552,
      "componentType": 5126,
      "count": 104,
      "max": [
        3.869107961654663,
        2.1471166610717773,
        18.70531463623047
      ],
      "min": [
        -3.8691418170928955,
        -2.0582642555236816,
        17.886232376098633
      ],
      "type": "VEC3"
    },
    {
      "bufferView": 2,
      "byteOffset": 67800,
      "componentType": 5126,
      "count": 104,
      "max": [
        1.0,
        1.0,
        1.0
      ],
      "min": [
        -1.0,
        -1.0,
        -1.0
      ],
      "type": "VEC3"
    },
    {
      "bufferView": 3,
      "byteOffset": 44368,
      "componentType": 5126,
      "count": 104,
      "max": [
        1.0,
        1.0,
        1.9030707669492392e-21,
        1.0
      ],
      "min": [
        -1.0,
        -1.0,
        -2.005769602082959e-21,
        1.0
      ],
      "type": "VEC4"
    },
    {
      "bufferView": 1,
      "byteOffset": 22184,
      "componentType": 5126,
      "count": 104,
      "max": [
        0.7841005921363831,
        0.9112839102745056
      ],
      "min": [
        0.4479997456073761,
        0.5771177411079407
      ],
      "type": "VEC2"
    },
    {
      "bufferView": 0,
      "byteOffset": 24744,
      "componentType": 5125,
      "count": 156,
      "type": "SCALAR"
    }
  ],
  "asset": {
    "extras": {
      "author": "DZs (https://sketchfab.com/DZs)",
      "license": "CC-BY-4.0 (http://creativecommons.org/licenses/by/4.0/)",
      "source": "https://sketchfab.com/3d-models/barrel-ef2024160ce640558614d2d34d1e3c47",
      "title": "Barrel"
    },
    "generator": "Sketchfab-12.66.0",
    "version": "2.0"
  },
  "bufferViews": [
    {
      "buffer": 0,
      "byteLength": 25368,
      "name": "floatBufferViews",
      "target": 34963
    },
    {
      "buffer": 0,
      "byteLength": 23016,
      "byteOffset": 25368,
      "byteStride": 8,
      "name": "floatBufferViews",
      "target": 34962
    },
    {
      "buffer": 0,
      "byteLength": 69048,
      "byteOffset": 48384,
      "byteStride": 12,
      "name": "floatBufferViews",
      "target": 34962
    },
    {
      "buffer": 0,
      "byteLength": 46032,
      "byteOffset": 117432,
      "byteStride": 16,
      "name": "floatBufferViews",
      "target": 34962
    }
  ],
  "buffers": [
    {
      "byteLength": 163464,
      "uri": "scene.bin"
    }
  ],
  "images": [
    {
      "uri": "textures/barrel_baseColor.png"
    },
    {
      "uri": "textures/barrel_metallicRoughness.png"
    },
    {
      "uri": "textures/barrel_normal.png"
    }
  ],
  "materials": [
    {
      "doubleSided": true,
      "name": "barrel",
      "normalTexture": {
        "index": 2
      },
      "occlusionTexture": {
        "index": 1
      },
      "pbrMetallicRoughness": {
        "baseColorTexture": {
          "index": 0
        },
        "metallicRoughnessTexture": {
          "index": 1
        }
      }
    }
  ],
  "meshes": [
    {
      "name": "lp005_barrel_0",
      "primitives": [
        {
          "attributes": {
            "NORMAL": 1,
            "POSITION": 0,
            "TANGENT": 2,
            "TEXCOORD_0": 3
          },
          "indices": 4,
          "material": 0,
          "mode": 4
        }
      ]
    },
    {
      "name": "Object_barrel_0",
      "primitives": [
        {
          "attributes": {
            "NORMAL": 6,
            "POSITION": 5,
            "TANGENT": 7,
            "TEXCOORD_0": 8
          },
          "indices": 9,
          "material": 0,
          "mode": 4
        }
      ]
    }
  ],
  "nodes": [
    {
      "children": [
        1
      ],
      "matrix": [
        1.3538717031478882,
        0.0,
        0.0,
        0.0,
        0.0,
        3.006199074446521e-16,
        -1.3538717031478882,
        0.0,
        0.0,
        1.3538717031478882,
        3.006199074446521e-16,
        0.0,
        0.0,
        0.0,
        0.0,
        1.0
      ],
      "name": "Sketchfab_model"
    },
    {
      "children": [
        2
      ],
      "matrix": [
        1.0,
        0.0,
        0.0,
        0.0,
        0.0,
        0.0,
        1.0,
        0.0,
        0.0,
        -1.0,
        0.0,
        0.0,
        0.0,
        0.0,
        0.0,
        1.0
      ],
      "name": "barrel_f.FBX"
    },
    {
      "children": [
        3,
        5
      ],
      "name": "RootNode"
    },
    {
      "children": [
        4
      ],
      "matrix": [
        0.9763922095298767,
        0.0,
        0.0,
        0.0,
        0.0,
        2.1680262241693986e-16,
        -0.9763922095298767,
        0.0,
        0.0,
        1.0,
        2.220446049250313e-16,
        0.0,
        -146.43197631835938,
        3.7406272888183594,
        18.324819564819336,
        1.0
      ],
      "name": "lp005"
    },
    {
      "mesh": 0,
      "name": "lp005_barrel_0"
    },
    {
      "children": [
        6
      ],
      "matrix": [
        0.9763922095298767,
        0.0,
        0.0,
        0.0,
        0.0,
        2.1680262241693986e-16,
        -0.9763922095298767,
        0.0,
        0.0,
        1.0,
        2.220446049250313e-16,
        0.0,
        -146.43199157714844,
        22.036399841308594,
        18.281442642211914,
        1.0
      ],
      "name": "Object"
    },
    {
      "children": [
        7
      ],
      "matrix": [
        1.0,
        0.0,
        -0.0,
        0.0,
        0.0,
        1.0,
        0.0,
        0.0,
        0.0,
        0.0,
        1.0,
        0.0,
        1.562772558827419e-05,
        -0.04442571848630905,
        -18.295772552490234,
        1.0
      ],
      "name": "Object_6"
    },
    {
      "mesh": 1,
      "name": "Object_barrel_0"
    }
  ],
  "samplers": [
    {
      "magFilter": 9729,
      "minFilter": 9987,
      "wrapS": 10497,
      "wrapT": 10497
    }
  ],
  "scene": 0,
  "scenes": [
    {
      "name": "Sketchfab_Scene",
      "nodes": [
        0
      ]
    }
  ],
  "textures": [
    {
      "sampler": 0,
      "source": 0
    },
    {
      "sampler": 0,
      "source": 1
    },
    {
      "sampler": 0,
      "source": 2
    }
  ]
}
