{
  "accessors": [
    {
      "bufferView": 1,
      "componentType": 5126,
      "count": 65532,
      "max": [
        47.0,
        -0.0,
        15.630000114440918
      ],
      "min": [
        -9.332500457763672,
        -136.5,
        -39.502498626708984
      ],
      "type": "VEC3"
    },
    {
      "bufferView": 1,
      "byteOffset": 786384,
      "componentType": 5126,
      "count": 65532,
      "max": [
        1.0,
        1.0,
        1.0
      ],
      "min": [
        -1.0,
        -1.0,
        -1.0
      ],
      "type": "VEC3"
    },
    {
      "bufferView": 0,
      "componentType": 5125,
      "count": 273447,
      "type": "SCALAR"
    },
    {
      "bufferView": 1,
      "byteOffset": 1572768,
      "componentType": 5126,
      "count": 65532,
      "max": [
        43.4380989074707,
        -0.0,
        19.07550048828125
      ],
      "min": [
        -10.028499603271484,
        -69.99749755859375,
        -40.67250061035156
      ],
      "type": "VEC3"
    },
    {
      "bufferView": 1,
      "byteOffset": 2359152,
      "componentType": 5126,
      "count": 65532,
      "max": [
        1.0,
        1.0,
        1.0
      ],
      "min": [
        -1.0,
        -1.0,
        -0.9999999403953552
      ],
      "type": "VEC3"
    },
    {
      "bufferView": 0,
      "byteOffset": 1093788,
      "componentType": 5125,
      "count": 245187,
      "type": "SCALAR"
    },
    {
      "bufferView": 1,
      "byteOffset": 3145536,
      "componentType": 5126,
      "count": 65532,
      "max": [
        44.0,
        -0.0,
        18.329999923706055
      ],
      "min": [
        -10.944999694824219,
        -123.56849670410156,
        -36.37350082397461
      ],
      "type": "VEC3"
    },
    {
      "bufferView": 1,
      "byteOffset": 3931920,
      "componentType": 5126,
      "count": 65532,
      "max": [
        1.0,
        1.0,
        1.0
      ],
      "min": [
        -1.0,
        -1.0,
        -1.0
      ],
      "type": "VEC3"
    },
    {
      "bufferView": 0,
      "byteOffset": 2074536,
      "componentType": 5125,
      "count": 230214,
      "type": "SCALAR"
    },
    {
      "bufferView": 1,
      "byteOffset": 4718304,
      "componentType": 5126,
      "count": 65532,
      "max": [
        44.0,
        -0.0,
        19.381500244140625
      ],
      "min": [
        -11.5,
        -136.5,
        -40.87350082397461
      ],
      "type": "VEC3"
    },
    {
      "bufferView": 1,
      "byteOffset": 5504688,
      "componentType": 5126,
      "count": 65532,
      "max": [
        1.0,
        1.0,
        1.0
      ],
      "min": [
        -1.0,
        -1.0,
        -1.0
      ],
      "type": "VEC3"
    },
    {
      "bufferView": 0,
      "byteOffset": 2995392,
      "componentType": 5125,
      "count": 252480,
      "type": "SCALAR"
    },
    {
      "bufferView": 1,
      "byteOffset": 6291072,
      "componentType": 5126,
      "count": 65534,
      "max": [
        43.9474983215332,
        -0.0,
        19.291500091552734
      ],
      "min": [
        -16.0,
        -136.5,
        -41.415000915527344
      ],
      "type": "VEC3"
    },
    {
      "bufferView": 1,
      "byteOffset": 7077480,
      "componentType": 5126,
      "count": 65534,
      "max": [
        1.0,
        1.0,
        1.0
      ],
      "min": [
        -1.0,
        -1.0,
        -1.0
      ],
      "type": "VEC3"
    },
    {
      "bufferView": 0,
      "byteOffset": 4005312,
      "componentType": 5125,
      "count": 250260,
      "type": "SCALAR"
    },
    {
      "bufferView": 1,
      "byteOffset": 7863888,
      "componentType": 5126,
      "count": 65533,
      "max": [
        43.448001861572266,
        -0.0,
        19.356000900268555
      ],
      "min": [
        -15.744999885559082,
        -136.5,
        -34.87950134277344
      ],
      "type": "VEC3"
    },
    {
      "bufferView": 1,
      "byteOffset": 8650284,
      "componentType": 5126,
      "count": 65533,
      "max": [
        1.0,
        1.0,
        1.0
      ],
      "min": [
        -1.0,
        -1.0,
        -1.0
      ],
      "type": "VEC3"
    },
    {
      "bufferView": 0,
      "byteOffset": 5006352,
      "componentType": 5125,
      "count": 214593,
      "type": "SCALAR"
    },
    {
      "bufferView": 1,
      "byteOffset": 9436680,
      "componentType": 5126,
      "count": 65532,
      "max": [
        47.0,
        -0.0,
        19.40850067138672
      ],
      "min": [
        -11.5,
        -136.5,
        -40.96799850463867
      ],
      "type": "VEC3"
    },
    {
      "bufferView": 1,
      "byteOffset": 10223064,
      "componentType": 5126,
      "count": 65532,
      "max": [
        1.0,
        1.0,
        1.0
      ],
      "min": [
        -1.0,
        -1.0,
        -1.0
      ],
      "type": "VEC3"
    },
    {
      "bufferView": 0,
      "byteOffset": 5864724,
      "componentType": 5125,
      "count": 186348,
      "type": "SCALAR"
    },
    {
      "bufferView": 1,
      "byteOffset": 11009448,
      "componentType": 5126,
      "count": 65532,
      "max": [
        43.81700134277344,
        -0.0,
        19.829999923706055
      ],
      "min": [
        -10.297699928283691,
        -70.07250213623047,
        -41.415000915527344
      ],
      "type": "VEC3"
    },
    {
      "bufferView": 1,
      "byteOffset": 11795832,
      "componentType": 5126,
      "count": 65532,
      "max": [
        1.0,
        1.0,
        1.0
      ],
      "min": [
        -1.0,
        -1.0,
        -1.0
      ],
      "type": "VEC3"
    },
    {
      "bufferView": 0,
      "byteOffset": 6610116,
      "componentType": 5125,
      "count": 190719,
      "type": "SCALAR"
    },
    {
      "bufferView": 1,
      "byteOffset": 12582216,
      "componentType": 5126,
      "count": 27445,
      "max": [
        43.0880012512207,
        -0.0,
        19.429500579833984
      ],
      "min": [
        -7.493500232696533,
        -99.95850372314453,
        -32.52750015258789
      ],
      "type": "VEC3"
    },
    {
      "bufferView": 1,
      "byteOffset": 12911556,
      "componentType": 5126,
      "count": 27445,
      "max": [
        1.0,
        1.0,
        1.0
      ],
      "min": [
        -1.0,
        -1.0,
        -1.0
      ],
      "type": "VEC3"
    },
    {
      "bufferView": 0,
      "byteOffset": 7372992,
      "componentType": 5125,
      "count": 67491,
      "type": "SCALAR"
    }
  ],
  "asset": {
    "extras": {
      "author": "DanielV4 (https://sketchfab.com/DanielV4)",
      "license": "CC-BY-4.0 (http://creativecommons.org/licenses/by/4.0/)",
      "source": "https://sketchfab.com/3d-models/bone-chair-e6757aea14b345c688fe55aaac768787",
      "title": "Bone Chair"
    },
    "generator": "Sketchfab-12.67.0",
    "version": "2.0"
  },
  "bufferViews": [
    {
      "buffer": 0,
      "byteLength": 7642956,
      "name": "floatBufferViews",
      "target": 34963
    },
    {
      "buffer": 0,
      "byteLength": 13240896,
      "byteOffset": 7642956,
      "byteStride": 12,
      "name": "floatBufferViews",
      "target": 34962
    }
  ],
  "buffers": [
    {
      "byteLength": 20883852,
      "uri": "scene.bin"
    }
  ],
  "materials": [
    {
      "doubleSided": true,
      "name": "color_16768282",
      "pbrMetallicRoughness": {
        "metallicFactor": 0.0
      }
    }
  ],
  "meshes": [
    {
      "name": "Object_0",
      "primitives": [
        {
          "attributes": {
            "NORMAL": 1,
            "POSITION": 0
          },
          "indices": 2,
          "material": 0,
          "mode": 4
        }
      ]
    },
    {
      "name": "Object_1",
      "primitives": [
        {
          "attributes": {
            "NORMAL": 4,
            "POSITION": 3
          },
          "indices": 5,
          "material": 0,
          "mode": 4
        }
      ]
    },
    {
      "name": "Object_2",
      "primitives": [
        {
          "attributes": {
            "NORMAL": 7,
            "POSITION": 6
          },
          "indices": 8,
          "material": 0,
          "mode": 4
        }
      ]
    },
    {
      "name": "Object_3",
      "primitives": [
        {
          "attributes": {
            "NORMAL": 10,
            "POSITION": 9
          },
          "indices": 11,
          "material": 0,
          "mode": 4
        }
      ]
    },
    {
      "name": "Object_4",
      "primitives": [
        {
          "attributes": {
            "NORMAL": 13,
            "POSITION": 12
          },
          "indices": 14,
          "material": 0,
          "mode": 4
        }
      ]
    },
    {
      "name": "Object_5",
      "primitives": [
        {
          "attributes": {
            "NORMAL": 16,
            "POSITION": 15
          },
          "indices": 17,
          "material": 0,
          "mode": 4
        }
      ]
    },
    {
      "name": "Object_6",
      "primitives": [
        {
          "attributes": {
            "NORMAL": 19,
            "POSITION": 18
          },
          "indices": 20,
          "material": 0,
          "mode": 4
        }
      ]
    },
    {
      "name": "Object_7",
      "primitives": [
        {
          "attributes": {
            "NORMAL": 22,
            "POSITION": 21
          },
          "indices": 23,
          "material": 0,
          "mode": 4
        }
      ]
    },
    {
      "name": "Object_8",
      "primitives": [
        {
          "attributes": {
            "NORMAL": 25,
            "POSITION": 24
          },
          "indices": 26,
          "material": 0,
          "mode": 4
        }
      ]
    }
  ],
  "nodes": [
    {
      "children": [
        1
      ],
      "matrix": [
        4.476007677398207e-18,
        -3.5808061419185655e-18,
        0.008063258603215218,
        0.0,
        2.685604606438924e-18,
        -0.008063258603215218,
        -6.26641074835749e-18,
        0.0,
        0.008063258603215218,
        5.371209212877849e-18,
        -1.7904030709592816e-18,
        0.0,
        26.292394638061523,
        -79.04233551025392,
        52.749942779541,
        1.0
      ],
      "name": "Sketchfab_model"
    },
    {
      "children": [
        2,
        3,
        4,
        5,
        6,
        7,
        8,
        9,
        10
      ],
      "name": "tinker.obj.cleaner.materialmerger.gles"
    },
    {
      "mesh": 0,
      "name": "Object_2"
    },
    {
      "mesh": 1,
      "name": "Object_3"
    },
    {
      "mesh": 2,
      "name": "Object_4"
    },
    {
      "mesh": 3,
      "name": "Object_5"
    },
    {
      "mesh": 4,
      "name": "Object_6"
    },
    {
      "mesh": 5,
      "name": "Object_7"
    },
    {
      "mesh": 6,
      "name": "Object_8"
    },
    {
      "mesh": 7,
      "name": "Object_9"
    },
    {
      "mesh": 8,
      "name": "Object_10"
    }
  ],
  "scene": 0,
  "scenes": [
    {
      "name": "Sketchfab_Scene",
      "nodes": [
        0
      ]
    }
  ]
}
